<svg xmlns="http://www.w3.org/2000/svg" xmlns:xlink="http://www.w3.org/1999/xlink" viewBox="0 0 55.12 55.12"><defs><style>.cls-1{fill:none;}.cls-2{opacity:0.9;}.cls-3{clip-path:url(#clip-path);}.cls-4{fill:#5c3d97;}.cls-5{fill:#fff;}</style><clipPath id="clip-path" transform="translate(0 0)"><rect class="cls-1" width="55.12" height="55.12"/></clipPath></defs><title>Asset 2</title><g id="Layer_2" data-name="Layer 2"><g id="Layer_1-2" data-name="Layer 1"><g class="cls-2"><g class="cls-3"><path class="cls-4" d="M55.12,27.56A27.56,27.56,0,1,1,27.56,0,27.56,27.56,0,0,1,55.12,27.56" transform="translate(0 0)"/></g></g><path class="cls-5" d="M14.4,22.93a.91.91,0,0,1,0-1.26.9.9,0,0,1,1.26,0L27.56,33.56,39.44,21.67a.9.9,0,0,1,1.26,0,.9.9,0,0,1,0,1.26L28.19,35.45a.89.89,0,0,1-.63.26.87.87,0,0,1-.63-.26Z" transform="translate(0 0)"/></g></g></svg>