<svg xmlns="http://www.w3.org/2000/svg" viewBox="0 0 481.93 481.93"><defs><style>.cls-1,.cls-28,.cls-3{fill:#fff;}.cls-2,.cls-9{fill:#318741;}.cls-3,.cls-9{font-size:18px;font-family:Lato-Light, Lato;}.cls-4{letter-spacing:-0.01em;}.cls-5{letter-spacing:-0.03em;}.cls-6{letter-spacing:0em;}.cls-7{letter-spacing:-0.01em;}.cls-8{letter-spacing:-0.01em;}.cls-10{letter-spacing:-0.01em;}.cls-11{letter-spacing:-0.01em;}.cls-12{letter-spacing:-0.01em;}.cls-13{letter-spacing:-0.02em;}.cls-14{letter-spacing:-0.01em;}.cls-15{letter-spacing:0em;}.cls-16{letter-spacing:0em;}.cls-17{letter-spacing:0em;}.cls-18{letter-spacing:-0.01em;}.cls-19{letter-spacing:-0.01em;}.cls-20{letter-spacing:-0.01em;}.cls-21{letter-spacing:-0.03em;}.cls-22{letter-spacing:-0.03em;}.cls-23{letter-spacing:0em;}.cls-24{letter-spacing:-0.01em;}.cls-25{letter-spacing:-0.01em;}.cls-26{letter-spacing:-0.01em;}.cls-27{letter-spacing:0em;}.cls-28{font-size:16.66px;font-family:Lato-Regular, Lato;}.cls-29{letter-spacing:-0.01em;}.cls-30{letter-spacing:-0.02em;}.cls-31{letter-spacing:-0.01em;}.cls-32{letter-spacing:0em;}.cls-33{letter-spacing:0em;}.cls-34{letter-spacing:0em;}.cls-35{letter-spacing:-0.02em;}.cls-36{fill:none;stroke:#020202;stroke-miterlimit:10;stroke-width:40px;}</style></defs><title>Asset 21</title><g id="Layer_2" data-name="Layer 2"><g id="Layer_1-2" data-name="Layer 1"><circle class="cls-1" cx="240.97" cy="240.97" r="220.97"/><polygon class="cls-2" points="240.97 461.93 240.97 20 155.98 36.94 84.72 84.72 397.21 397.21 327.55 444.32 240.97 461.93"/><polygon class="cls-2" points="20 240.97 461.93 240.97 443.34 152.12 397.21 84.72 84.72 397.21 36.49 324.88 20 240.97"/><text class="cls-3" transform="translate(136.68 98.55)"><tspan class="cls-4">C</tspan><tspan x="12" y="0">oe</tspan><tspan class="cls-5" x="31.43" y="0">r</tspan><tspan class="cls-6" x="37.29" y="0">cion &amp;</tspan><tspan class="cls-7" x="14.67" y="21.6">T</tspan><tspan x="24.94" y="21.6">h</tspan><tspan class="cls-5" x="34.84" y="21.6">r</tspan><tspan x="40.7" y="21.6">e</tspan><tspan class="cls-8" x="50.08" y="21.6">a</tspan><tspan x="58.7" y="21.6">ts</tspan></text><text class="cls-9" transform="translate(254.06 104.9)"><tspan class="cls-10">I</tspan><tspan class="cls-11" x="4.54" y="0">n</tspan><tspan x="14.33" y="0">timid</tspan><tspan class="cls-12" x="53.23" y="0">at</tspan><tspan x="61.84" y="0">ion</tspan></text><text class="cls-3" transform="translate(342.98 181.06)"><tspan class="cls-13">E</tspan><tspan x="10.13" y="0">m</tspan><tspan class="cls-14" x="24.62" y="0">o</tspan><tspan x="34.51" y="0">tional</tspan><tspan class="cls-15"><tspan x="14.52" y="21.6">A</tspan><tspan class="cls-16" x="26.26" y="21.6">buse</tspan></tspan></text><text class="cls-9" transform="translate(344.51 294.52)"><tspan class="cls-13">I</tspan><tspan class="cls-17" x="4.37" y="0">sol</tspan><tspan class="cls-12" x="26.05" y="0">a</tspan><tspan x="34.66" y="0">tion</tspan></text><text class="cls-3" transform="translate(268.1 361.17)"><tspan class="cls-18">D</tspan><tspan x="13.54" y="0">e</tspan><tspan class="cls-19" x="22.93" y="0">n</tspan><tspan x="32.64" y="0">ying,</tspan><tspan class="cls-10" x="-9.46" y="21.6">M</tspan><tspan x="6.74" y="21.6">inimizing,</tspan><tspan class="cls-20" x="3.63" y="43.2">B</tspan><tspan x="14.8" y="43.2">laming</tspan></text><text class="cls-9" transform="translate(160.97 369.1)"><tspan class="cls-21">U</tspan><tspan x="12.61" y="0">sing</tspan><tspan x="-10.88" y="21.6">Child</tspan><tspan class="cls-22" x="29.09" y="21.6">r</tspan><tspan class="cls-23" x="34.95" y="21.6">en</tspan></text><text class="cls-3" transform="translate(67.42 294.52)"><tspan class="cls-24">P</tspan><tspan x="10.21" y="0">rivile</tspan><tspan class="cls-25" x="46.97" y="0">g</tspan><tspan class="cls-23" x="56.04" y="0">e</tspan></text><text class="cls-9" transform="translate(66.94 183.45)"><tspan class="cls-5">E</tspan><tspan class="cls-26" x="9.94" y="0">c</tspan><tspan x="18.25" y="0">onomic</tspan><tspan class="cls-27" x="13.32" y="21.6">A</tspan><tspan x="25.06" y="21.6">buse</tspan></text><circle cx="240.97" cy="240.97" r="93.87"/><text class="cls-28" transform="translate(178.18 237.66)">Click a<tspan class="cls-29" x="48.03" y="0">n</tspan><tspan class="cls-30" x="57.12" y="0">y</tspan><tspan x="65.3" y="0" xml:space="preserve"> pie</tspan><tspan class="cls-31" x="91.7" y="0">c</tspan><tspan class="cls-32" x="99.5" y="0">e </tspan><tspan class="cls-33" x="112.57" y="0">t</tspan><tspan class="cls-34" x="118.5" y="0">o</tspan><tspan x="24.82" y="19.99">learn mo</tspan><tspan class="cls-35" x="88.61" y="19.99">r</tspan><tspan x="94.33" y="19.99">e</tspan></text><path class="cls-36" d="M20,241c0-39.24,12.47-94.64,49.77-139.71a222.45,222.45,0,0,1,50.35-44.11C165.46,28,213.29,20.11,241,20c91.45-.36,221,83.07,221,221,0,122-98.93,221-221,221S20,363,20,241Z"/><path class="cls-1" d="M121.18,55.68A216,216,0,0,0,79.45,88a212.82,212.82,0,0,0-17.6,19.73l-1.91,2.47-1,1.31c-.66.87-1.31,1.75-1.95,2.63q-2.28-3.82-4.46-7.74a208.14,208.14,0,0,0-5.1,25.08,198.22,198.22,0,0,1,20.71-13.32Q63.89,117,59.57,116c.63-.87,1.27-1.74,1.92-2.6l1-1.29,1.88-2.43A209.64,209.64,0,0,1,81.68,90.25,212.83,212.83,0,0,1,122.8,58.41Z"/><path class="cls-1" d="M358.26,58.3a237.35,237.35,0,0,1,38.35,32.08,214.16,214.16,0,0,1,16.26,19l1.31,1.75.48.65,1,1.3,1.87,2.63q-4.34.93-8.63,2a181.45,181.45,0,0,1,20.36,13.77,191.31,191.31,0,0,0-4.53-25.23q-2.25,3.88-4.6,7.65l-1.9-2.67-1-1.32-.48-.66-1.33-1.78a217.33,217.33,0,0,0-16.5-19.29A240.51,240.51,0,0,0,360,55.67Z"/><path class="cls-1" d="M134.19,42.35a8,8,0,0,1,2.13-.91,4.4,4.4,0,0,1,1.8-.1,3.19,3.19,0,0,1,1.44.63,4.15,4.15,0,0,1,1.07,1.28,4,4,0,0,1,.51,1.59,3.59,3.59,0,0,1-.22,1.59,4.64,4.64,0,0,1-.95,1.5,7.26,7.26,0,0,1-1.71,1.34l-1.85,1.1,2.47,4.11-1.51.92-6.7-10.94C132.07,43.6,132.77,43.18,134.19,42.35Zm3.37,5.74a4.51,4.51,0,0,0,1.09-.86,3,3,0,0,0,.6-1,2.29,2.29,0,0,0,.12-1,2.76,2.76,0,0,0-.35-1,2.37,2.37,0,0,0-1.65-1.27,3.69,3.69,0,0,0-2.48.64L133,44.66l2.72,4.53Z"/><path class="cls-1" d="M144.21,42.43a4.94,4.94,0,0,1,.74-1.51,3.79,3.79,0,0,1,1.36-1.12,3.58,3.58,0,0,1,1.35-.41,2.65,2.65,0,0,1,1.21.17,3,3,0,0,1,1,.7,4.53,4.53,0,0,1,.81,1.17l2.56,5.17-1.45.72-2.6-5.15a2.35,2.35,0,0,0-1.16-1.2,1.87,1.87,0,0,0-1.59.18,2.9,2.9,0,0,0-1.08.94,4.44,4.44,0,0,0-.62,1.37l3.14,5.89-1.43.77-6.29-11.59,1.53-.82Z"/><path class="cls-1" d="M158.83,34c-.08,5.16-.06,7.72.09,12.83a.85.85,0,0,1-.06.34.54.54,0,0,1-.29.25l-1.06.5c0-1.58,0-2.37,0-4-2.81-2.46-4.24-3.67-7.16-6l1.31-.63a.53.53,0,0,1,.36-.06.54.54,0,0,1,.26.13c1.9,1.62,2.85,2.44,4.7,4.1a6.13,6.13,0,0,1,.55.61q-.06-.44-.08-.84c-.07-2.47-.1-3.72-.12-6.2a.51.51,0,0,1,.08-.29.52.52,0,0,1,.24-.21Z"/><path class="cls-1" d="M165.7,32.8a.37.37,0,0,1-.25.31.67.67,0,0,1-.33,0l-.48,0a4,4,0,0,0-.65,0,3,3,0,0,0-.82.22,2.53,2.53,0,0,0-.66.38,1.84,1.84,0,0,0-.42.48,1.25,1.25,0,0,0-.17.52,1.08,1.08,0,0,0,.08.52.84.84,0,0,0,.42.46,1.82,1.82,0,0,0,.66.16,5,5,0,0,0,.83,0l.93-.08q.48,0,.94,0a3.16,3.16,0,0,1,.88.13,2,2,0,0,1,.75.41,2,2,0,0,1,.53.79,2.94,2.94,0,0,1,.21,1.16,2.56,2.56,0,0,1-.28,1.1,3.26,3.26,0,0,1-.77,1,4.54,4.54,0,0,1-1.28.76,4.73,4.73,0,0,1-1.71.38,4.5,4.5,0,0,1-1.52-.21l.11-.71a.55.55,0,0,1,.09-.23.48.48,0,0,1,.21-.16.61.61,0,0,1,.37,0l.51.09a3.4,3.4,0,0,0,.69,0,2.94,2.94,0,0,0,.9-.24,2.56,2.56,0,0,0,.71-.42,1.73,1.73,0,0,0,.42-.52,1.31,1.31,0,0,0,.15-.57,1.47,1.47,0,0,0-.11-.57.94.94,0,0,0-.42-.5,1.72,1.72,0,0,0-.66-.19,4.41,4.41,0,0,0-.83,0l-.92.09c-.32,0-.63,0-.95,0a3.22,3.22,0,0,1-.9-.12,2.12,2.12,0,0,1-.77-.41,2.16,2.16,0,0,1-.58-.83,2.32,2.32,0,0,1-.19-1,2.44,2.44,0,0,1,.27-1,3.21,3.21,0,0,1,.75-.94,4.33,4.33,0,0,1,1.24-.75,4.62,4.62,0,0,1,1.67-.37,3.93,3.93,0,0,1,1.48.24Z"/><path class="cls-1" d="M168.56,27.06a1,1,0,0,1,.06.44,1.26,1.26,0,0,1-.12.43,1.26,1.26,0,0,1-.68.61,1.17,1.17,0,0,1-.46.08,1.2,1.2,0,0,1-.44-.1,1.22,1.22,0,0,1-.37-.24,1,1,0,0,1-.24-.37,1.06,1.06,0,0,1-.07-.45,1.17,1.17,0,0,1,.11-.43,1.19,1.19,0,0,1,.26-.36,1.18,1.18,0,0,1,.4-.25,1.25,1.25,0,0,1,.47-.08,1.22,1.22,0,0,1,.45.09,1.2,1.2,0,0,1,.38.25A1,1,0,0,1,168.56,27.06Zm.65,2.79,3.16,8.5-1.49.56-3.23-8.47Z"/><path class="cls-1" d="M178.5,28.34a.71.71,0,0,1-.09.19.34.34,0,0,1-.18.11.56.56,0,0,1-.32,0l-.47-.11a3.31,3.31,0,0,0-.65,0,3.32,3.32,0,0,0-2,.79,2.31,2.31,0,0,0-.61.94,3,3,0,0,0-.15,1.2,5.21,5.21,0,0,0,.3,1.4,5.15,5.15,0,0,0,.66,1.32,3.14,3.14,0,0,0,.86.84,2.33,2.33,0,0,0,1,.35,2.61,2.61,0,0,0,1.12-.14,2.69,2.69,0,0,0,1.36-.92c.12-.16.22-.3.3-.42a.52.52,0,0,1,.27-.23.35.35,0,0,1,.34.05l.61.42a3.24,3.24,0,0,1-.45.8,4.22,4.22,0,0,1-.64.66,4.61,4.61,0,0,1-.78.53,5.92,5.92,0,0,1-.89.38,4,4,0,0,1-1.59.22,3.68,3.68,0,0,1-1.5-.44,4.33,4.33,0,0,1-1.29-1.09,5.91,5.91,0,0,1-1-1.76,5.77,5.77,0,0,1-.36-1.86,4.13,4.13,0,0,1,.3-1.68,3.81,3.81,0,0,1,1-1.37,4.73,4.73,0,0,1,1.68-.94,4.55,4.55,0,0,1,1.77-.26,4.13,4.13,0,0,1,1.55.42Z"/><path class="cls-1" d="M180.38,27.39a5,5,0,0,1,3.1-2.44,3.62,3.62,0,0,1,1.42-.15,2.84,2.84,0,0,1,1.18.39,2.91,2.91,0,0,1,.9.87,4.39,4.39,0,0,1,.58,1.29L189.09,33l-.68.19a.69.69,0,0,1-.36,0,.52.52,0,0,1-.27-.23l-.41-.78q-.25.42-.51.76a4.08,4.08,0,0,1-.57.61,4,4,0,0,1-.69.48,4.42,4.42,0,0,1-.87.36,3.28,3.28,0,0,1-1,.15,2.32,2.32,0,0,1-.9-.19,2.11,2.11,0,0,1-.74-.55,2.61,2.61,0,0,1-.51-1,2,2,0,0,1,0-1.08,2.58,2.58,0,0,1,.67-1.13,6.26,6.26,0,0,1,1.5-1.11,12.8,12.8,0,0,1,2.48-1l-.19-.68a2.37,2.37,0,0,0-.89-1.41,1.71,1.71,0,0,0-1.47-.14,3,3,0,0,0-.94.43,3.81,3.81,0,0,0-.59.52l-.4.47a.76.76,0,0,1-.37.27.48.48,0,0,1-.3,0,.78.78,0,0,1-.26-.14Zm6.11,2a12.86,12.86,0,0,0-1.78.69,5.36,5.36,0,0,0-1.12.71,1.74,1.74,0,0,0-.53.71,1.13,1.13,0,0,0,0,.71,1.5,1.5,0,0,0,.29.56,1.15,1.15,0,0,0,.43.31,1.28,1.28,0,0,0,.52.09,2.2,2.2,0,0,0,.58-.1,3.31,3.31,0,0,0,.71-.3,3,3,0,0,0,.56-.42,3.83,3.83,0,0,0,.46-.53,5.15,5.15,0,0,0,.39-.64Z"/><path class="cls-1" d="M189.75,19.14,193,31.92l-1.53.4-3.35-12.75Z"/><path class="cls-1" d="M198,22.73a5,5,0,0,1,3.29-2.16,3.59,3.59,0,0,1,1.42,0,2.83,2.83,0,0,1,1.14.49,2.91,2.91,0,0,1,.81,1,4.41,4.41,0,0,1,.46,1.34l1,5.7-.69.13a.68.68,0,0,1-.36,0,.52.52,0,0,1-.25-.26l-.34-.81q-.29.39-.57.71a4.06,4.06,0,0,1-.61.56,3.92,3.92,0,0,1-.73.42,4.37,4.37,0,0,1-.9.28,3.25,3.25,0,0,1-1,.06,2.29,2.29,0,0,1-.88-.27,2.1,2.1,0,0,1-.69-.61,2.62,2.62,0,0,1-.43-1,2,2,0,0,1,.07-1.07,2.58,2.58,0,0,1,.76-1.07,6.21,6.21,0,0,1,1.58-1,12.68,12.68,0,0,1,2.55-.79l-.13-.69a2.38,2.38,0,0,0-.76-1.48,1.7,1.7,0,0,0-1.45-.27,3,3,0,0,0-1,.35,3.78,3.78,0,0,0-.63.47l-.43.43a.76.76,0,0,1-.39.23.48.48,0,0,1-.3,0,.78.78,0,0,1-.24-.16Zm5.88,2.58a12.74,12.74,0,0,0-1.82.54,5.32,5.32,0,0,0-1.17.61,1.73,1.73,0,0,0-.59.66,1.13,1.13,0,0,0-.07.71,1.5,1.5,0,0,0,.24.58,1.15,1.15,0,0,0,.4.35,1.27,1.27,0,0,0,.51.14,2.18,2.18,0,0,0,.59,0,3.28,3.28,0,0,0,.73-.24,2.93,2.93,0,0,0,.59-.37,3.81,3.81,0,0,0,.5-.49,5.13,5.13,0,0,0,.44-.61Z"/><path class="cls-1" d="M208.77,20.72a5.28,5.28,0,0,1,.54-.69,4.21,4.21,0,0,1,.64-.57,3.68,3.68,0,0,1,.76-.42,3.94,3.94,0,0,1,.9-.24,3.42,3.42,0,0,1,1.37,0,2.59,2.59,0,0,1,1.06.56,3,3,0,0,1,.73,1,4.63,4.63,0,0,1,.39,1.37l.76,5.72-1.57.22L213.56,22a2.39,2.39,0,0,0-.7-1.51,1.8,1.8,0,0,0-1.53-.35,2.77,2.77,0,0,0-1.29.54,4.34,4.34,0,0,0-1,1.09l1.08,6.59-1.56.26L207,19.68l1-.16a.4.4,0,0,1,.48.26Z"/><path class="cls-1" d="M224.57,13.3l1.11,13.14-.93.08a.4.4,0,0,1-.45-.29l-.24-1.08a5,5,0,0,1-1.2,1.25,3.35,3.35,0,0,1-1.64.6,3.25,3.25,0,0,1-1.42-.14,3,3,0,0,1-1.17-.75,4.28,4.28,0,0,1-.86-1.36,7.47,7.47,0,0,1-.48-2,6.12,6.12,0,0,1,0-1.89,4.48,4.48,0,0,1,.6-1.58,3.6,3.6,0,0,1,1.14-1.14,3.79,3.79,0,0,1,1.65-.54,3.45,3.45,0,0,1,1.49.13,3.51,3.51,0,0,1,1.16.68l-.46-5Zm-1.09,6.4a2.57,2.57,0,0,0-1.06-.74,2.86,2.86,0,0,0-1.21-.12,2.34,2.34,0,0,0-1.88,1.11,4.13,4.13,0,0,0-.4,2.64,6.6,6.6,0,0,0,.33,1.49,3,3,0,0,0,.56,1,1.78,1.78,0,0,0,.78.51,2.42,2.42,0,0,0,1,.08,2.59,2.59,0,0,0,1.32-.49,4,4,0,0,0,1-1.11Z"/><path class="cls-1" d="M239.34,14.93a.65.65,0,0,1-.18.2.41.41,0,0,1-.24.07.68.68,0,0,1-.37-.15c-.14-.1-.32-.21-.54-.32a4.35,4.35,0,0,0-.78-.32,3.41,3.41,0,0,0-1.1-.12,3.26,3.26,0,0,0-1.06.19,2.27,2.27,0,0,0-.76.45,1.73,1.73,0,0,0-.44.65,1.94,1.94,0,0,0-.13.79,1.42,1.42,0,0,0,.31.88,2.37,2.37,0,0,0,.74.57,5.62,5.62,0,0,0,1,.4l1.16.35q.59.18,1.16.41a4,4,0,0,1,1,.6,2.8,2.8,0,0,1,.72.91,3,3,0,0,1,.28,1.34,4.36,4.36,0,0,1-.27,1.58,3.72,3.72,0,0,1-.81,1.3,4,4,0,0,1-1.32.89A5,5,0,0,1,236,26a5.56,5.56,0,0,1-2.26-.36,5.43,5.43,0,0,1-1.79-1.14l.46-.85a.65.65,0,0,1,.17-.17.4.4,0,0,1,.22-.08.5.5,0,0,1,.27.08l.35.22.44.29a3.57,3.57,0,0,0,.56.29,3.77,3.77,0,0,0,.71.21,3.86,3.86,0,0,0,.88.06,3.31,3.31,0,0,0,1.09-.2,2.35,2.35,0,0,0,.8-.5,2.1,2.1,0,0,0,.5-.75,2.47,2.47,0,0,0,.16-1,1.6,1.6,0,0,0-.29-.95,2.19,2.19,0,0,0-.71-.61,4.75,4.75,0,0,0-1-.4l-1.15-.32c-.39-.11-.78-.24-1.16-.38a3.82,3.82,0,0,1-1-.58,2.93,2.93,0,0,1-.75-.93,3.36,3.36,0,0,1-.34-1.41,3.31,3.31,0,0,1,1-2.49,3.87,3.87,0,0,1,1.27-.84,4.86,4.86,0,0,1,1.77-.36,5.74,5.74,0,0,1,2.06.29,4.75,4.75,0,0,1,1.64,1Z"/><path class="cls-1" d="M249.48,24.57a3.07,3.07,0,0,1-.72.6,4.44,4.44,0,0,1-.88.41,5.62,5.62,0,0,1-1,.23,5.93,5.93,0,0,1-1,.07,4.6,4.6,0,0,1-1.7-.34,3.83,3.83,0,0,1-1.35-.94,4.36,4.36,0,0,1-.9-1.52,6.2,6.2,0,0,1-.33-2.08,5.18,5.18,0,0,1,.29-1.77,4.08,4.08,0,0,1,.85-1.43,3.88,3.88,0,0,1,1.37-.94,4.52,4.52,0,0,1,1.83-.32,4.23,4.23,0,0,1,1.55.3,3.47,3.47,0,0,1,1.21.82,3.55,3.55,0,0,1,.77,1.3,4.74,4.74,0,0,1,.23,1.73,1,1,0,0,1-.1.5.34.34,0,0,1-.31.11c-2.44-.08-3.66-.1-6.11-.11a5.35,5.35,0,0,0,.23,1.5,3,3,0,0,0,.58,1.06,2.39,2.39,0,0,0,.88.64,3.09,3.09,0,0,0,1.15.23,3.43,3.43,0,0,0,1-.12,5,5,0,0,0,.75-.28,5.58,5.58,0,0,0,.53-.29.69.69,0,0,1,.37-.13.35.35,0,0,1,.3.16Zm-1.16-4.29a3.08,3.08,0,0,0-.13-1,2.23,2.23,0,0,0-.44-.81,2.06,2.06,0,0,0-.73-.54,2.56,2.56,0,0,0-1-.2,2.51,2.51,0,0,0-1.86.65,3.07,3.07,0,0,0-.85,1.84C245.31,20.21,246.31,20.23,248.32,20.28Z"/><path class="cls-1" d="M258.72,26.37l-1.5-.12a.43.43,0,0,1-.3-.12,1,1,0,0,1-.16-.24c-.8-1.48-1.21-2.22-2-3.69l-.09.24a.82.82,0,0,1-.13.21c-.92,1.18-1.37,1.78-2.26,3a1.74,1.74,0,0,1-.2.22.37.37,0,0,1-.28.09l-1.4-.06c1.32-1.81,2-2.71,3.38-4.5-1.13-1.83-1.71-2.74-2.9-4.55l1.57.07a.53.53,0,0,1,.29.08.61.61,0,0,1,.16.19c.85,1.4,1.27,2.11,2.09,3.52a1.87,1.87,0,0,1,.26-.49c.86-1.1,1.3-1.64,2.18-2.73a.84.84,0,0,1,.19-.19.37.37,0,0,1,.24-.06l1.51.11c-1.39,1.63-2.08,2.45-3.42,4.1C257.05,23.39,257.62,24.38,258.72,26.37Z"/><path class="cls-1" d="M268.6,18.27l-1.12,9-.93-.11a.4.4,0,0,1-.38-.38c0-.39,0-.59,0-1a5.09,5.09,0,0,1-1.42.9,3.45,3.45,0,0,1-1.69.22,3.25,3.25,0,0,1-1.26-.37,2.6,2.6,0,0,1-.87-.78,3,3,0,0,1-.47-1.13,4.89,4.89,0,0,1-.07-1.42l.5-5.76,1.64.15-.55,5.76a2.44,2.44,0,0,0,.31,1.63,1.76,1.76,0,0,0,1.36.7A2.71,2.71,0,0,0,265,25.5a4.24,4.24,0,0,0,1.23-.79l.77-6.63Z"/><path class="cls-1" d="M270.77,19.84a5,5,0,0,1,3.82-.9,3.58,3.58,0,0,1,1.34.46,2.83,2.83,0,0,1,.9.85,2.91,2.91,0,0,1,.44,1.17,4.4,4.4,0,0,1,0,1.41l-1,5.72-.69-.12a.68.68,0,0,1-.34-.13.52.52,0,0,1-.14-.33l0-.88q-.4.27-.78.47a4,4,0,0,1-.77.31,3.9,3.9,0,0,1-.82.15,4.35,4.35,0,0,1-.94,0,3.23,3.23,0,0,1-1-.29,2.29,2.29,0,0,1-.73-.55,2.1,2.1,0,0,1-.44-.81,2.63,2.63,0,0,1-.06-1.09,2,2,0,0,1,.43-1,2.58,2.58,0,0,1,1.07-.74,6.2,6.2,0,0,1,1.82-.38,12.67,12.67,0,0,1,2.66.13l.11-.7a2.38,2.38,0,0,0-.21-1.65,1.7,1.7,0,0,0-1.27-.75,3,3,0,0,0-1,0,3.78,3.78,0,0,0-.75.23l-.55.25a.75.75,0,0,1-.44.09.48.48,0,0,1-.27-.12.78.78,0,0,1-.17-.24Zm4.63,4.44a12.65,12.65,0,0,0-1.89-.12,5.28,5.28,0,0,0-1.31.17,1.73,1.73,0,0,0-.78.42,1.13,1.13,0,0,0-.31.64,1.51,1.51,0,0,0,0,.63,1.15,1.15,0,0,0,.25.47,1.27,1.27,0,0,0,.43.31,2.17,2.17,0,0,0,.57.16,3.27,3.27,0,0,0,.77,0,2.93,2.93,0,0,0,.68-.14,3.83,3.83,0,0,0,.64-.29,5.08,5.08,0,0,0,.62-.42Z"/><path class="cls-1" d="M282.7,16.32l-2.46,13L278.68,29,281,16Z"/><path class="cls-1" d="M300.41,20.84c-3.51,4.34-5.21,6.55-8.48,11l-1.5-.37c-.8-5.48-1.26-8.22-2.32-13.7l1.43.32a.63.63,0,0,1,.36.2.71.71,0,0,1,.15.34c.68,3.87,1,5.8,1.54,9.66,0,.22,0,.45.06.7s0,.51,0,.78c.12-.24.24-.47.37-.68s.24-.41.37-.59c2.29-3.16,3.47-4.72,5.88-7.82a.66.66,0,0,1,.29-.21.63.63,0,0,1,.42,0Z"/><path class="cls-1" d="M303.54,22.7a1,1,0,0,1-.22.39,1.24,1.24,0,0,1-.35.27,1.24,1.24,0,0,1-.91.08,1.15,1.15,0,0,1-.41-.21,1.19,1.19,0,0,1-.29-.34,1.24,1.24,0,0,1-.15-.42,1,1,0,0,1,0-.44,1.07,1.07,0,0,1,.21-.4,1.19,1.19,0,0,1,.77-.41,1.16,1.16,0,0,1,.47,0,1.24,1.24,0,0,1,.43.22,1.23,1.23,0,0,1,.3.35,1.2,1.2,0,0,1,.15.43A1,1,0,0,1,303.54,22.7Zm-1.15,2.63L299.81,34l-1.52-.44,2.51-8.71Z"/><path class="cls-1" d="M308.82,27.19a4.89,4.89,0,0,1,1.66.91,3.93,3.93,0,0,1,1,1.35,4,4,0,0,1,.36,1.69,5.68,5.68,0,0,1-.36,1.92,5.83,5.83,0,0,1-.93,1.72,4.2,4.2,0,0,1-1.31,1.1,3.87,3.87,0,0,1-1.59.44,4.77,4.77,0,0,1-1.8-.26,4.83,4.83,0,0,1-1.61-.87,3.86,3.86,0,0,1-1-1.3,4.19,4.19,0,0,1-.39-1.66,5.83,5.83,0,0,1,.28-1.94,5.69,5.69,0,0,1,.86-1.75,4,4,0,0,1,1.29-1.14,3.91,3.91,0,0,1,1.64-.47A4.94,4.94,0,0,1,308.82,27.19Zm-2.55,7.68a2.37,2.37,0,0,0,2.2-.21,4.16,4.16,0,0,0,1.45-2.16,4.08,4.08,0,0,0,.18-2.61,2.41,2.41,0,0,0-1.68-1.52,3,3,0,0,0-1.24-.16,2.25,2.25,0,0,0-1,.37,2.92,2.92,0,0,0-.82.87,5.62,5.62,0,0,0-.6,1.33,4.15,4.15,0,0,0-.12,2.6A2.4,2.4,0,0,0,306.28,34.88Z"/><path class="cls-1" d="M318.08,26.25l-4.64,12.34L311.94,38l4.54-12.38Z"/><path class="cls-1" d="M323.18,41.16a3.11,3.11,0,0,1-.9.29,4.56,4.56,0,0,1-1,.05,5.82,5.82,0,0,1-1-.14,6.15,6.15,0,0,1-1-.3,4.76,4.76,0,0,1-1.49-.95,3.9,3.9,0,0,1-.93-1.38,4.35,4.35,0,0,1-.29-1.74,6.11,6.11,0,0,1,.45-2.05,5.1,5.1,0,0,1,.92-1.54,4.07,4.07,0,0,1,1.33-1A4,4,0,0,1,321,32a4.67,4.67,0,0,1,1.85.38,4.38,4.38,0,0,1,1.36.86,3.44,3.44,0,0,1,1.1,2.71,4.66,4.66,0,0,1-.41,1.7,1,1,0,0,1-.28.43.35.35,0,0,1-.34,0c-2.29-1-3.44-1.46-5.75-2.38a5.27,5.27,0,0,0-.33,1.48,3,3,0,0,0,.16,1.21,2.43,2.43,0,0,0,.6.93,3.19,3.19,0,0,0,1,.64,3.55,3.55,0,0,0,1,.27,5.2,5.2,0,0,0,.81,0,5.73,5.73,0,0,0,.61-.07.71.71,0,0,1,.39,0,.36.36,0,0,1,.22.26Zm.47-4.43a3,3,0,0,0,.25-1,2.22,2.22,0,0,0-.13-.92,2.11,2.11,0,0,0-.5-.77,2.65,2.65,0,0,0-.87-.56,2.58,2.58,0,0,0-2-.09,3,3,0,0,0-1.48,1.4C320.82,35.54,321.76,35.93,323.65,36.74Z"/><path class="cls-1" d="M329.19,36.74a5.41,5.41,0,0,1,.85-.27,4.32,4.32,0,0,1,.86-.11,3.79,3.79,0,0,1,.88.08,4.08,4.08,0,0,1,.9.31,3.56,3.56,0,0,1,1.14.82,2.64,2.64,0,0,1,.59,1.06,3,3,0,0,1,.07,1.24,4.53,4.53,0,0,1-.44,1.35l-2.55,5.18L330,45.7l2.51-5.2a2.36,2.36,0,0,0,.25-1.65,1.86,1.86,0,0,0-1.11-1.16,2.87,2.87,0,0,0-1.4-.28,4.41,4.41,0,0,0-1.46.35l-2.77,6.08-1.47-.66,3.69-8.28.92.41a.41.41,0,0,1,.27.48Z"/><path class="cls-1" d="M342.94,44a.74.74,0,0,1-.2.06.36.36,0,0,1-.21-.05.58.58,0,0,1-.22-.25c-.06-.12-.15-.26-.25-.42a3.44,3.44,0,0,0-.42-.51,3.43,3.43,0,0,0-1.95-.89,2.34,2.34,0,0,0-1.11.19,3,3,0,0,0-1,.71,5.14,5.14,0,0,0-.81,1.18,5.08,5.08,0,0,0-.5,1.39,3.12,3.12,0,0,0,0,1.2,2.36,2.36,0,0,0,.45,1,2.69,2.69,0,0,0,.88.72,2.77,2.77,0,0,0,1.63.37l.52-.07a.53.53,0,0,1,.36,0,.36.36,0,0,1,.2.28l.12.73a3.28,3.28,0,0,1-.9.22,4.33,4.33,0,0,1-.93,0,4.69,4.69,0,0,1-.93-.21,6.08,6.08,0,0,1-.9-.39,4.14,4.14,0,0,1-1.27-1,3.72,3.72,0,0,1-.73-1.4,4.3,4.3,0,0,1-.1-1.69,5.85,5.85,0,0,1,.61-1.91,5.72,5.72,0,0,1,1.1-1.54,4.11,4.11,0,0,1,1.44-.93,3.86,3.86,0,0,1,1.7-.22,4.87,4.87,0,0,1,1.87.59,4.7,4.7,0,0,1,1.43,1.12,4.21,4.21,0,0,1,.78,1.42Z"/><path class="cls-1" d="M348.35,54.24a3.16,3.16,0,0,1-.94.15,4.68,4.68,0,0,1-1-.1,6,6,0,0,1-1-.29,6.37,6.37,0,0,1-.92-.44,4.91,4.91,0,0,1-1.37-1.16,4,4,0,0,1-.75-1.5,4.33,4.33,0,0,1-.06-1.78,6,6,0,0,1,.72-2,5,5,0,0,1,1.13-1.4,4.06,4.06,0,0,1,1.47-.81,4,4,0,0,1,1.7-.12,4.81,4.81,0,0,1,1.81.65,4.52,4.52,0,0,1,1.25,1.05,3.61,3.61,0,0,1,.69,1.33,3.54,3.54,0,0,1,.06,1.52A4.59,4.59,0,0,1,350.5,51a1,1,0,0,1-.33.38.36.36,0,0,1-.34-.06c-2.16-1.32-3.25-2-5.45-3.21a5.21,5.21,0,0,0-.53,1.42,3,3,0,0,0,0,1.22,2.47,2.47,0,0,0,.48,1,3.3,3.3,0,0,0,.93.78,3.67,3.67,0,0,0,1,.42,5.35,5.35,0,0,0,.81.14,5.87,5.87,0,0,0,.62,0,.73.73,0,0,1,.39.08.37.37,0,0,1,.19.29Zm1.06-4.33a3,3,0,0,0,.38-1,2.21,2.21,0,0,0,0-.93,2.14,2.14,0,0,0-.4-.84,2.73,2.73,0,0,0-.8-.68,2.64,2.64,0,0,0-2-.39,3,3,0,0,0-1.67,1.17C346.73,48.31,347.62,48.83,349.41,49.91Z"/></g></g></svg>