<svg xmlns="http://www.w3.org/2000/svg" xmlns:xlink="http://www.w3.org/1999/xlink" viewBox="0 0 83.46 83.46"><defs><style>.cls-1{fill:none;}.cls-2{clip-path:url(#clip-path);}.cls-3{fill:#5c3d97;}.cls-4{fill:#fff;}</style><clipPath id="clip-path" transform="translate(0 0)"><rect class="cls-1" width="83.46" height="83.47"/></clipPath></defs><title>Asset 1</title><g id="Layer_2" data-name="Layer 2"><g id="Layer_1-2" data-name="Layer 1"><g class="cls-2"><g class="cls-2"><path class="cls-3" d="M83.46,41.73A41.73,41.73,0,1,1,41.73,0,41.73,41.73,0,0,1,83.46,41.73" transform="translate(0 0)"/></g></g><path class="cls-4" d="M41.77,41H41.7l0,0,0,0m16.08.61h0l-.06.06c-.16.17-.33.34-.5.51l-15,15.09-.54.55L26.31,42.35a7.37,7.37,0,0,1-2.62-5.51c0-4.46,4.35-8.07,9.71-8.07a10.25,10.25,0,0,1,8.33,3.91,10.24,10.24,0,0,1,8.33-3.91c5.37,0,9.72,3.61,9.72,8.07a7.19,7.19,0,0,1-1.92,4.82" transform="translate(0 0)"/></g></g></svg>