<svg xmlns="http://www.w3.org/2000/svg" viewBox="0 0 40.94 40.94"><defs><style>.cls-1{fill:none;stroke:#e3bd21;stroke-miterlimit:10;}</style></defs><title>Asset 8</title><g id="Layer_2" data-name="Layer 2"><g id="Layer_1-2" data-name="Layer 1"><circle class="cls-1" cx="10.07" cy="27.13" r="2.08"/><circle class="cls-1" cx="16.73" cy="27.13" r="2.08"/><polyline class="cls-1" points="28.79 32.12 29.63 30.04 30.88 31.29 32.54 30.46 33.79 31.29 36.7 31.29"/><line class="cls-1" x1="32.95" y1="23.38" x2="26.71" y2="23.38"/><path class="cls-1" d="M18.81,20.06v1.66s0,2.91-2.5,2.91H10.49C8,24.63,8,21.72,8,21.72V20.06Z"/><path class="cls-1" d="M15.48,15.06H14.23v5h4.58V18.81S18.81,15.06,15.48,15.06Z"/><path class="cls-1" d="M8,19.22a1.63,1.63,0,0,0-1.66-1.66H5.08"/><line class="cls-1" x1="36.62" y1="20.89" x2="26.3" y2="20.89"/><path class="cls-1" d="M26.26,8.57,17.89.5H3.83A3.26,3.26,0,0,0,.5,3.83V37.11a3.26,3.26,0,0,0,3.33,3.33H23a3.26,3.26,0,0,0,3.33-3.33Z"/><path class="cls-1" d="M26.3,37.95H37.12a3.26,3.26,0,0,0,3.33-3.33V6.32A3.26,3.26,0,0,0,37.12,3L20.89,3"/></g></g></svg>