<svg xmlns="http://www.w3.org/2000/svg" viewBox="0 0 44.01 40.56"><defs><style>.cls-1{fill:#8eae71;}</style></defs><title>Asset 7</title><g id="Layer_2" data-name="Layer 2"><g id="Layer_1-2" data-name="Layer 1"><path class="cls-1" d="M2.39,12.22,34.52,4.78l-.44-2A1,1,0,0,0,32.83,2L2.72,8.89a1.06,1.06,0,0,0-.79,1.27c.15.68.3,1.37.46,2.06M2.12,7.07l30.49-7a2.71,2.71,0,0,1,3.23,2.09L39,16.57H37.13L35.68,10,3.55,17.48l2,9,.18.79a.58.58,0,0,0,.7.45l.24-.05v1.91h0a2.26,2.26,0,0,1-2.69-1.73L.07,10.38A2.74,2.74,0,0,1,.42,8.29a2.6,2.6,0,0,1,1.7-1.22Zm7.92,10a2.74,2.74,0,0,0-2.7,2.76V37.8A2.73,2.73,0,0,0,10,40.56H41.3A2.74,2.74,0,0,0,44,37.8V19.86a2.74,2.74,0,0,0-2.71-2.76Zm30.61,8V21.47a.42.42,0,0,0-.42-.42h-8a.42.42,0,0,0-.41.42v3.65a.42.42,0,0,0,.41.42h8a.42.42,0,0,0,.42-.42M34.75,36.2a.42.42,0,0,1-.42-.42v-.85a.42.42,0,0,1,.42-.42h5.48a.42.42,0,0,1,.42.42v.85a.42.42,0,0,1-.42.42Zm-7.64,0a.42.42,0,0,1-.41-.42v-.84a.42.42,0,0,1,.41-.42h5.48a.42.42,0,0,1,.41.42v.84a.42.42,0,0,1-.41.42Zm-7.64,0a.42.42,0,0,1-.42-.42v-.84a.42.42,0,0,1,.42-.42h5.48a.42.42,0,0,1,.41.42v.84a.42.42,0,0,1-.41.42Zm-7.64,0a.42.42,0,0,1-.42-.42v-.84a.42.42,0,0,1,.42-.42h5.48a.42.42,0,0,1,.42.42v.84a.42.42,0,0,1-.42.42Z"/></g></g></svg>