<svg xmlns="http://www.w3.org/2000/svg" viewBox="0 0 43.65 42.76"><defs><style>.cls-1{fill:#8eae71;}</style></defs><title>Asset 6</title><g id="Layer_2" data-name="Layer 2"><g id="Layer_1-2" data-name="Layer 1"><path class="cls-1" d="M25.83,19.6H38.3a.89.89,0,1,0,0-1.78H25.83a.89.89,0,1,0,0,1.78m0-5.35h5.35a.89.89,0,0,0,0-1.78H25.83a.89.89,0,1,0,0,1.78m-7.31,16H4.45a2.67,2.67,0,0,1-2.67-2.67V7.13H41V24.61a.89.89,0,0,0,1.78,0V4.45A4.46,4.46,0,0,0,38.3,0H4.45A4.46,4.46,0,0,0,0,4.45V27.62a4.46,4.46,0,0,0,4.45,4.45H18.52a.89.89,0,1,0,0-1.78M1.78,4.45A2.68,2.68,0,0,1,4.45,1.78H38.3A2.68,2.68,0,0,1,41,4.45v.89H1.78Zm32.07,29.4H30.29a.89.89,0,1,0,0,1.78h3.56a.89.89,0,1,0,0-1.78M38.3,12.32H34.74a.89.89,0,1,0,0,1.78H38.3a.89.89,0,1,0,0-1.78M42.45,31a3.51,3.51,0,0,0,1.2-2.46,1.25,1.25,0,0,0-1.35-1.26,4.36,4.36,0,0,0-1.87.61,9.27,9.27,0,0,0-3.32-4,15.84,15.84,0,0,0-5-.71,15.86,15.86,0,0,0-5,.71,9.29,9.29,0,0,0-3.32,4,4.38,4.38,0,0,0-1.87-.61,1.39,1.39,0,0,0-.86.26,1.22,1.22,0,0,0-.48,1A3.51,3.51,0,0,0,21.69,31a.92.92,0,0,0,.32.17,11,11,0,0,0-.63,3.61c0,1.33.12,3.6.89,4.76V41a1.76,1.76,0,0,0,1.78,1.78h1.78A1.76,1.76,0,0,0,27.61,41v-.6a19.11,19.11,0,0,0,4.45.6,19.1,19.1,0,0,0,4.45-.6V41a1.76,1.76,0,0,0,1.78,1.78h1.78A1.76,1.76,0,0,0,41.87,41V39.5c.77-1.16.89-3.43.89-4.76a11,11,0,0,0-.63-3.61.92.92,0,0,0,.32-.17M27.81,25.47a15.71,15.71,0,0,1,4.25-.53,15.77,15.77,0,0,1,4.25.52,8.38,8.38,0,0,1,2.87,4.05c-1.67.23-5.63.77-7.11.77s-5.44-.53-7.12-.77a8.37,8.37,0,0,1,2.86-4m-5,4.08a1.92,1.92,0,0,1-.25-.3l.33.18-.09.12m3,11.43H24v-.89h1.78Zm14.26,0H38.3v-.89h1.78Zm.41-2.67H37.41a1,1,0,0,0-.28,0,18.57,18.57,0,0,1-5.06.85A18.83,18.83,0,0,1,27,38.35h-.07a.85.85,0,0,0-.21,0H23.64a10.12,10.12,0,0,1-.48-3.56c0-.28,0-.58.05-.89,1.2,0,2.62.44,2.62.89a.89.89,0,1,0,1.78,0c0-2.18-2.94-2.58-4.05-2.65a7,7,0,0,1,.36-.92h0c.25,0,6.13.9,8.15.9s7.9-.86,8.15-.9h0a7.15,7.15,0,0,1,.35.92c-1.11.07-4.05.48-4.05,2.65a.89.89,0,0,0,1.78,0c0-.46,1.42-.85,2.62-.89a8.61,8.61,0,0,1,.05.89,10.14,10.14,0,0,1-.48,3.56m.85-8.76-.09-.12.34-.18a1.9,1.9,0,0,1-.25.3M21.62,25.26A.89.89,0,0,0,21.55,24a4.89,4.89,0,0,0-2.07-1.1l-2.39-.6a9.28,9.28,0,0,0,2.54-.89.9.9,0,0,0,.42-.7.92.92,0,0,0-.32-.76s-1.21-1.08-1.21-4.73-1-5.54-2.83-5.54h0a2.93,2.93,0,0,0-2.29-.78c-1.62,0-5.15,1.59-5.15,6.31,0,3.63-1.2,4.71-1.19,4.71a.89.89,0,0,0,.08,1.48,9.2,9.2,0,0,0,2.54.9l-2.39.6a4.85,4.85,0,0,0-3.68,4.71.89.89,0,0,0,.89.89H17.92a.89.89,0,1,0,0-1.78H5.48a3.07,3.07,0,0,1,2.2-2.09l3.19-.8a.9.9,0,0,0,.65-.65l.33-1.32a.89.89,0,0,0-.74-1.1,11.79,11.79,0,0,1-2.16-.49,10.3,10.3,0,0,0,1-5c0-3.74,2.82-4.53,3.37-4.53a1.33,1.33,0,0,1,1.31.52.89.89,0,0,0,.63.26h.39c.52,0,1,1.16,1,3.76a10.32,10.32,0,0,0,1,5,12.08,12.08,0,0,1-2.16.49.89.89,0,0,0-.62.39.88.88,0,0,0-.13.71l.33,1.32a.89.89,0,0,0,.65.65l3.19.8a3.08,3.08,0,0,1,1.31.7.89.89,0,0,0,1.26-.07"/></g></g></svg>