<svg xmlns="http://www.w3.org/2000/svg" viewBox="0 0 42.41 37.26"><defs><style>.cls-1{fill:#7f817c;}.cls-2{fill:#d1d1d1;}.cls-3{fill:#6a6c67;}</style></defs><title>Asset 13</title><g id="Layer_2" data-name="Layer 2"><g id="Layer_1-2" data-name="Layer 1"><polygon class="cls-1" points="2.99 14.58 25.91 1.35 25.91 0 0.66 14.58 2.99 14.58"/><polygon class="cls-1" points="16.01 23.93 16.01 22.58 4.17 15.74 4.17 15.74 3.97 15.63 3.97 15.63 3.97 15.63 3.97 15.63 3.76 15.51 3.76 15.51 2.99 15.06 0.66 15.06 16.01 23.93"/><polygon class="cls-2" points="34.33 8.87 26.15 4.15 8.08 14.58 16.25 19.3 34.33 8.87"/><path class="cls-3" d="M16,35.91l-1.94-1.12,0,0,0,0,0,0,0,0a.19.19,0,0,1,0,0,.21.21,0,0,1,0,0v-.48h0a.27.27,0,0,1,0,0l0,0h0l0,0,0,0,0,0,0,0h.14l0,0h0l1.7,1v-4.7l-1.94-1.12,0,0,0,0,0,0,0,0v0s0,0,0,0v-.48h0a.28.28,0,0,1,0,0l0,0h0l0,0,0,0,0,0,0,0h.14l0,0h0l1.7,1V27.82L0,18.57V19.9L1.94,21l0,0,0,0,0,0,0,0a.2.2,0,0,1,0,0,.18.18,0,0,1,0,0v.48h0a.23.23,0,0,1,0,0v0H2A.19.19,0,0,1,2,21.9l0,0a.23.23,0,0,1-.11,0h0a.22.22,0,0,1-.11,0h0l-1.7-1v4.7l1.94,1.12,0,0,0,0,0,0,0,0a.19.19,0,0,1,0,0,.15.15,0,0,1,0,0v.48h0a.19.19,0,0,1,0,.05v0H2L2,27.64l0,0a.24.24,0,0,1-.11,0h0a.22.22,0,0,1-.11,0h0l-1.7-1V28l16,9.25Z"/><path class="cls-1" d="M16,26.39l-1.94-1.12,0,0,0,0,0,0,0,0a.19.19,0,0,1,0,0,.25.25,0,0,1,0,0v-.48h0a.27.27,0,0,1,0,0l0,0h0l0,0,0,0,0,0,0,0h.14l0,0h0l1.7,1v-.87L0,15.24v.87l1.94,1.12,0,0,0,0,0,0,0,0a.21.21,0,0,1,0,0,.16.16,0,0,1,0,0v.49a.22.22,0,0,1,0,0v0H2L2,18.11l0,0a.24.24,0,0,1-.11,0h0a.23.23,0,0,1-.11,0h0l-1.7-1V18l16,9.25Z"/><path class="cls-1" d="M40.35,15.48a.22.22,0,0,1,0,0l0,0,0,0,0,0,0,0,1.94-1.12V12.86L33.2,18.17v.6a.21.21,0,0,1,0,0l0,0,0,0,0,0,0,0L27.3,22.29h0l-.11,0h0l-.11,0h0l-.5-.29L16.5,27.82v1.32l1.7-1h0l0,0h.14l0,0,0,0,0,0,0,0h0l0,0a.2.2,0,0,1,0,0h0a0,0,0,0,1,0,0h0v.46a.16.16,0,0,1,0,0,.21.21,0,0,1,0,0l0,0,0,0,0,0,0,0L16.5,30.17v4.71l1.7-1h0l0,0h.14l0,0,0,0,0,0,0,0h0a.16.16,0,0,1,0,0,.21.21,0,0,1,0,0h0v.48a.15.15,0,0,1,0,0,.2.2,0,0,1,0,0l0,0,0,0,0,0,0,0L16.5,35.91v1.35l25.91-15V21l-1.7,1h0l-.11,0h0a.23.23,0,0,1-.11,0l0,0-.06-.06h0v0a.22.22,0,0,1,0,0v-.49s0,0,0,0a.21.21,0,0,1,0,0l0,0,0,0,0,0,0,0,1.94-1.12v-4.7l-1.7,1h0a.24.24,0,0,1-.11,0h0a.24.24,0,0,1-.11,0l0,0-.06-.06h0v0a.21.21,0,0,1,0,0v-.52"/><polygon class="cls-1" points="25.91 3.73 25.91 3.1 5.3 14.99 7.5 14.36 25.91 3.73"/><path class="cls-1" d="M40.35,11.7a.2.2,0,0,1,0,0l0,0,0,0,0,0,0,0,1.94-1.12V9.52l-25.91,15v.87l1.7-1h0l0,0h.14l0,0,0,0,0,0,0,0h0l0,0a.2.2,0,0,1,0,0h0v.48a.15.15,0,0,1,0,0,.2.2,0,0,1,0,0l0,0,0,0,0,0,0,0L16.5,26.39v.87l9.83-5.67v-.81h0s0,0,0,0v-.06h0l0,0,0,0,0,0h0l5.77-3.33h0l0,0h.17l.62.36h0l0,0,0,0h0l9.26-5.35v-.87l-1.7,1h0l-.11,0h0a.23.23,0,0,1-.11,0l0,0-.06-.06h0v-.06a.26.26,0,0,1,0,0v-.49a.15.15,0,0,1,0,0"/><polygon class="cls-1" points="27.05 20.77 27.18 20.85 32.48 17.8 32.34 17.72 27.05 20.77"/><polygon class="cls-1" points="39.41 9.35 38.65 9.79 38.65 9.79 38.44 9.91 38.44 9.91 38.23 10.03 38.23 10.03 16.5 22.58 16.5 23.93 41.75 9.35 39.41 9.35"/><polygon class="cls-1" points="27.43 21.66 32.72 18.61 32.72 18.21 27.43 21.27 27.43 21.37 27.43 21.66"/><polygon class="cls-1" points="26.81 21.31 26.91 21.25 26.81 21.19 26.81 21.31"/><polygon class="cls-1" points="16.01 19.72 7.56 14.84 4.91 15.61 16.01 22.02 16.01 19.72"/><polygon class="cls-1" points="25.91 1.91 3.54 14.82 3.88 15.02 25.91 2.3 25.91 1.91"/><polygon class="cls-1" points="26.39 3.73 34.91 8.64 37.1 9.28 26.39 3.1 26.39 3.73"/><polygon class="cls-1" points="26.39 1.35 39.41 8.87 41.75 8.87 26.39 0 26.39 1.35"/><polygon class="cls-1" points="16.5 19.72 16.5 22.02 37.5 9.89 34.84 9.13 16.5 19.72"/><polygon class="cls-1" points="26.39 2.3 38.53 9.3 38.87 9.11 26.39 1.91 26.39 2.3"/></g></g></svg>