<svg xmlns="http://www.w3.org/2000/svg" viewBox="0 0 51.65 55.92"><defs><style>.cls-1{fill:#fff;}</style></defs><title>Asset 18</title><g id="Layer_2" data-name="Layer 2"><g id="Layer_1-2" data-name="Layer 1"><path class="cls-1" d="M0,55.92c0-.28,0-.49,0-.69,0-3,0-5.9,0-8.85A3.19,3.19,0,0,1,1,44q4.57-4.52,9.12-9.05a7.93,7.93,0,0,1,5.43-2.32c3.29-.13,6.58-.1,9.88-.12,1.9,0,3.81,0,5.71,0a3,3,0,0,1,3,2.68A2.92,2.92,0,0,1,32,38.31a4.88,4.88,0,0,1-1.24.12h-10a3.21,3.21,0,0,0-1,.13,1.53,1.53,0,0,0-.94,1.65,1.49,1.49,0,0,0,1.46,1.28c2.11,0,4.23,0,6.34,0,2.53,0,5.07,0,7.6.05a3.26,3.26,0,0,0,2.53-1.06q4.84-4.89,9.73-9.74a3,3,0,0,1,4.21-.24,2.94,2.94,0,0,1,.38,4,6.37,6.37,0,0,1-.58.63Q43.77,41.9,37.09,48.59a3.58,3.58,0,0,1-2.69,1.14c-6.34,0-12.68,0-19,0a2.36,2.36,0,0,0-1.82.76c-1.68,1.72-3.38,3.4-5.09,5.09a1.05,1.05,0,0,1-.61.35C5.28,55.93,2.69,55.92,0,55.92Z"/><path class="cls-1" d="M27.35,7.2A10.28,10.28,0,1,1,17.07,17.45,10.25,10.25,0,0,1,27.35,7.2Zm-1.2,4.46c.26.81-.14,1.1-.79,1.37a2.46,2.46,0,0,0-1.49,2.53,2.29,2.29,0,0,0,1.62,2.24c.51.2,1.05.32,1.57.49a9,9,0,0,1,1.33.49.74.74,0,0,1,.13,1.27,1.64,1.64,0,0,1-.73.27,4,4,0,0,1-2.72-.78L23.93,21.1a5,5,0,0,0,1.25.62c.91.15,1.16.66,1,1.49,0,0,0,.06.06.1h1.94l.05-1.14a11.32,11.32,0,0,0,1.13-.43,2.56,2.56,0,0,0,1.43-2.47A2.22,2.22,0,0,0,29.37,17c-.88-.35-1.8-.6-2.69-.9-.46-.15-.85-.38-.79-1a.9.9,0,0,1,1.07-.73,21.2,21.2,0,0,1,2.19.43l.92-1.45a3.56,3.56,0,0,0-1-.46c-.72-.1-1-.45-.88-1.16,0,0,0-.06-.07-.12Z"/><path class="cls-1" d="M13.61,16.72v1.42h-.94c-.8,0-1.59,0-2.39,0-.36,0-.51-.08-.5-.47,0-1.14-.09-.94.93-1Z"/><path class="cls-1" d="M18.06,27.63l-2.58,2.57-.82-.85,2.57-2.58Z"/><path class="cls-1" d="M36.64,27.52l.81-.75,2.66,2.63-.85.74Z"/><path class="cls-1" d="M18.06,7.35l-.81.78-2.6-2.61.82-.74Z"/><path class="cls-1" d="M39.29,4.72l.74.79L37.44,8.1l-.73-.79Z"/><path class="cls-1" d="M26.71,0H28V3.72H26.71Z"/><path class="cls-1" d="M41.05,18.14V16.82H44.8v1.32Z"/></g></g></svg>