<svg xmlns="http://www.w3.org/2000/svg" viewBox="0 0 11.06 16.64"><defs><style>.cls-1{fill:#fff;}</style></defs><title>Asset 3</title><g id="Layer_2" data-name="Layer 2"><g id="Layer_1-2" data-name="Layer 1"><path class="cls-1" d="M7.45,0l1,.2a2.87,2.87,0,0,1,2.09,1.64A5.29,5.29,0,0,1,11,3.78a12.32,12.32,0,0,1-.91,5.55A15.13,15.13,0,0,1,7,14.43,7.9,7.9,0,0,1,4.5,16.27a3.88,3.88,0,0,1-1.74.38,2.58,2.58,0,0,1-1.49-.52l-.87-.66a.94.94,0,0,1-.3-1.18L1.3,11.66a1.13,1.13,0,0,1,.48-.54.74.74,0,0,1,.7,0c.4.18.8.35,1.2.54a1.18,1.18,0,0,0,1.1,0A2.75,2.75,0,0,0,6,10.33c.23-.47.44-.94.66-1.42l.58-1.26a2.76,2.76,0,0,0,.17-1.88A1.07,1.07,0,0,0,6.8,5L5.65,4.52a.89.89,0,0,1-.49-1.27c.23-.53.48-1,.72-1.57.13-.29.28-.57.4-.87A1.2,1.2,0,0,1,7.09,0Zm2.92,4.67h0c-.06-.49-.1-1-.19-1.48a3.23,3.23,0,0,0-.59-1.45A2.08,2.08,0,0,0,8.51.95C8.14.85,7.76.79,7.38.72A.28.28,0,0,0,7,.91L6.49,2,5.82,3.5c-.09.2-.06.3.14.39l1.16.52a1.7,1.7,0,0,1,1,1.13,3.35,3.35,0,0,1-.15,2.32q-.61,1.38-1.26,2.74a3.41,3.41,0,0,1-1.52,1.62,1.87,1.87,0,0,1-1.77,0c-.37-.18-.74-.33-1.11-.51a.18.18,0,0,0-.25.06.63.63,0,0,0-.08.13l-1.2,2.6a.27.27,0,0,0,.1.38l.86.65a1.8,1.8,0,0,0,.93.34,3.07,3.07,0,0,0,1.57-.32,7.71,7.71,0,0,0,2.43-1.88A14.65,14.65,0,0,0,9.56,8.82a12.4,12.4,0,0,0,.81-4.15"/></g></g></svg>