<svg xmlns="http://www.w3.org/2000/svg" viewBox="0 0 62.3 56.11"><defs><style>.cls-1{fill:#fff;}</style></defs><title>Asset 14</title><g id="Layer_2" data-name="Layer 2"><g id="Layer_1-2" data-name="Layer 1"><path class="cls-1" d="M54,56.11H25.23V34.59H16.59V56.1H7.94v-.62q0-16.61,0-33.22a.93.93,0,0,1,.49-.91Q19.23,14.46,30,7.53a.8.8,0,0,1,1,0q11.24,6.93,22.5,13.83a.86.86,0,0,1,.5.84q0,16.67,0,33.34ZM14.44,54V32.42H27.38V53.94H51.84v-.4q0-15.08,0-30.17a.82.82,0,0,0-.5-.78Q41.17,16.35,31,10.08a.76.76,0,0,0-1,0q-9.72,6.25-19.47,12.47a.94.94,0,0,0-.49.91q0,14.93,0,29.87V54Z"/><path class="cls-1" d="M1.23,23,0,21.24,31.38,0,62.3,21.24,61.07,23,31.37,2.64Z"/></g></g></svg>