<svg xmlns="http://www.w3.org/2000/svg" viewBox="0 0 56.09 56.05"><defs><style>.cls-1{fill:#fff;}</style></defs><title>Asset 17</title><g id="Layer_2" data-name="Layer 2"><g id="Layer_1-2" data-name="Layer 1"><path class="cls-1" d="M3.17,15.84a10.86,10.86,0,0,0,9.25-3.33c2.48-2.62,3.22-5.83,3-9.35H40.76c0,.61,0,1.23,0,1.85a10.85,10.85,0,0,0,3.75,8.3A10.48,10.48,0,0,0,51.31,16c.56,0,1.12,0,1.77,0v.8c0,3.81,0,7.62,0,11.42C52.9,38.63,47.9,46.14,38.63,50.57A25,25,0,0,1,4.78,37.28a21.47,21.47,0,0,1-1.65-8.2q0-6.29,0-12.59C3.13,16.3,3.15,16.11,3.17,15.84ZM6.26,19c0,.14,0,.25,0,.36,0,3.2,0,6.4,0,9.6a20.15,20.15,0,0,0,.46,3.91A20.91,20.91,0,0,0,14.9,45.3a20.91,20.91,0,0,0,16.4,4.26,22,22,0,0,0,14.17-8.47,18.35,18.35,0,0,0,4.21-10.21c.25-3.92.13-7.86.16-11.8a.09.09,0,0,0,0-.07c-7-1.44-11.08-5.7-12.27-12.74H18.48A14.13,14.13,0,0,1,6.26,19Z"/><path class="cls-1" d="M34,55.57a3.81,3.81,0,0,1-.7-.87.64.64,0,0,1,.47-.86c1.29-.42,2.57-.86,3.88-1.19a1.27,1.27,0,0,1,1,.49.94.94,0,0,1-.27.86C36.95,54.56,35.52,55,34,55.57Z"/><path class="cls-1" d="M.89,36.26c.3-.32.49-.68.78-.79a.77.77,0,0,1,1,.56c.33.91.64,1.83,1,2.74A4.49,4.49,0,0,1,4,39.86a1.06,1.06,0,0,1-.34.84.87.87,0,0,1-.84-.14C2.16,39.18,1.55,37.76.89,36.26Z"/><path class="cls-1" d="M18,52.51l.6.2c1.11.35,2.21.7,3.32,1,.67.2,1,.58.87,1.06s-.57.69-1.27.49c-1.22-.36-2.42-.76-3.62-1.15a.68.68,0,0,1-.49-.91A2.67,2.67,0,0,1,18,52.51Z"/><path class="cls-1" d="M15.33,51.53c0,.71-.61,1.12-1.11.81-1.23-.75-2.44-1.55-3.6-2.41-.18-.14-.18-.72-.06-1a.61.61,0,0,1,.95-.21c1.18.76,2.34,1.54,3.49,2.33A1.35,1.35,0,0,1,15.33,51.53Z"/><path class="cls-1" d="M45.73,49.45a2.77,2.77,0,0,1-.49.7c-1,.75-2.12,1.48-3.2,2.19a.78.78,0,0,1-1.19-.2A.81.81,0,0,1,41.19,51c1.06-.69,2.1-1.43,3.17-2.1a1.17,1.17,0,0,1,.89-.11C45.45,48.84,45.56,49.18,45.73,49.45Z"/><path class="cls-1" d="M1.94,32.31c-.26.23-.48.56-.78.67a.65.65,0,0,1-.87-.55,14.07,14.07,0,0,1-.25-2c0-.78,0-1.55,0-2.33a.68.68,0,0,1,.76-.71.69.69,0,0,1,.78.7c.07,1.36.12,2.71.17,4.07Z"/><path class="cls-1" d="M52.78,40.89c-.83,0-1.13-.5-.9-1.09q.72-1.82,1.48-3.64a.75.75,0,0,1,1-.48.68.68,0,0,1,.43,1c-.48,1.22-.94,2.44-1.46,3.64C53.24,40.59,52.9,40.78,52.78,40.89Z"/><path class="cls-1" d="M54.53,22.39c0-.67,0-1.34,0-2a.78.78,0,1,1,1.56,0q0,2,0,4c0,.53-.26.83-.77.84a.72.72,0,0,1-.78-.82C54.54,23.69,54.53,23,54.53,22.39Z"/><path class="cls-1" d="M9,46.75c-.16.2-.3.5-.51.58a.94.94,0,0,1-.82-.1c-1-1.1-1.9-2.23-2.8-3.38-.28-.36-.07-.7.26-.94a.66.66,0,0,1,1,.05C7,44,7.85,45.11,8.73,46.2A2.33,2.33,0,0,1,9,46.75Z"/><path class="cls-1" d="M47.91,47.63c-.26-.19-.56-.31-.65-.52a1,1,0,0,1,0-.83c.84-1.1,1.71-2.17,2.63-3.2a1,1,0,0,1,1-.1.68.68,0,0,1,.26,1,8.13,8.13,0,0,1-.76,1q-.89,1.07-1.82,2.11A4.2,4.2,0,0,1,47.91,47.63Z"/><path class="cls-1" d="M1.56,22.11q0,1,0,2a.7.7,0,0,1-.73.8A.72.72,0,0,1,0,24.13q0-2,0-4.07a.68.68,0,0,1,.8-.73.68.68,0,0,1,.74.71C1.58,20.73,1.56,21.42,1.56,22.11Z"/><path class="cls-1" d="M54.53,15.07l-1.23-.26a.77.77,0,0,1-.71-.92.73.73,0,0,1,.89-.65c.62.05,1.24.13,1.86.23a.81.81,0,0,1,.74.9c0,.63,0,1.25,0,1.88a.71.71,0,0,1-.81.8.7.7,0,0,1-.75-.79C54.53,15.87,54.53,15.49,54.53,15.07Z"/><path class="cls-1" d="M28,56c-.65,0-1.3,0-1.94,0a.73.73,0,0,1-.76-1c.09-.54.45-.65.95-.64,1.16,0,2.32,0,3.48,0,.49,0,.94.1,1,.68A.78.78,0,0,1,30,56c-.64.06-1.29,0-1.94,0Z"/><path class="cls-1" d="M1.57,14.9c0,.41,0,.71,0,1,0,.52-.23.82-.76.83A.71.71,0,0,1,0,15.94c0-.56,0-1.12,0-1.68a.78.78,0,0,1,.82-.93,14.09,14.09,0,0,1,1.94,0,.72.72,0,0,1,.75.8.76.76,0,0,1-.79.78C2.36,14.93,2,14.9,1.57,14.9Z"/><path class="cls-1" d="M28.38,0h1.81A.72.72,0,0,1,31,.79c0,.52-.32.77-.84.77H26.48A.75.75,0,0,1,25.62.8c0-.48.31-.79.88-.79Z"/><path class="cls-1" d="M20.72,0h1.81c.52,0,.83.22.84.76a.71.71,0,0,1-.8.79H18.81A.71.71,0,0,1,18,.77c0-.52.31-.77.84-.76Z"/><path class="cls-1" d="M35.94,1.56H34.06a.71.71,0,0,1-.79-.81.71.71,0,0,1,.8-.74h3.82a.7.7,0,0,1,.77.78.71.71,0,0,1-.77.77Z"/><path class="cls-1" d="M42.63,1.56c-.36,0-.69,0-1,0a.7.7,0,0,1-.72-.81A.68.68,0,0,1,41.63,0q1,0,1.94,0a.76.76,0,0,1,.83.91,16.16,16.16,0,0,1-.32,1.91.79.79,0,1,1-1.54-.33A7.78,7.78,0,0,0,42.63,1.56Z"/><path class="cls-1" d="M56,29.69c-.08.93-.14,1.73-.21,2.52-.06.63-.43,1-.89,1s-.68-.48-.62-1.15c.1-1.16.17-2.32.23-3.48,0-.64.28-.93.82-.91s.71.38.69.88S56,29.4,56,29.69Z"/><path class="cls-1" d="M13.89,1.56c0,.47,0,.84,0,1.2a.73.73,0,0,1-.81.74c-.47,0-.68-.31-.71-.76,0-.63-.09-1.25-.14-1.87S12.42,0,13,0s1.21,0,1.82,0a.73.73,0,0,1,.85.76c0,.54-.32.82-.88.8C14.49,1.55,14.19,1.56,13.89,1.56Z"/><path class="cls-1" d="M13.79,6.34c-.49,1.16-1,2.34-1.49,3.47a.73.73,0,0,1-1.06.3c-.44-.25-.43-.64-.27-1.07Q11.54,7.51,12.08,6a.77.77,0,0,1,.93-.6.75.75,0,0,1,.62.91Z"/><path class="cls-1" d="M43.68,5.28a2.6,2.6,0,0,1,.57.62c.43.86.78,1.77,1.2,2.64.22.46.28.87-.2,1.19a.77.77,0,0,1-1.2-.32,30.13,30.13,0,0,1-1.31-3C42.53,5.81,42.92,5.3,43.68,5.28Z"/><path class="cls-1" d="M10.15,12.09c-.22.28-.34.6-.57.72-1,.52-2,1-3,1.46a.82.82,0,0,1-1.17-.48c-.18-.53.22-.79.67-1,.89-.41,1.76-.89,2.66-1.28a1.54,1.54,0,0,1,1-.05C9.86,11.51,10,11.83,10.15,12.09Z"/><path class="cls-1" d="M50.32,14a6.44,6.44,0,0,1-.7-.24c-.92-.47-1.85-.94-2.76-1.42a.76.76,0,0,1-.39-1.13c.28-.48.72-.47,1.18-.22q1.37.74,2.74,1.45a.75.75,0,0,1,.47.95C50.78,13.65,50.49,13.84,50.32,14Z"/><path class="cls-1" d="M32,39.71H24.19V32H16.41V24.19h7.73V16.4H31.9v7.73h7.78V31.9H32Z"/></g></g></svg>