<svg xmlns="http://www.w3.org/2000/svg" viewBox="0 0 13.43 19.67"><defs><style>.cls-1{fill:#fff;}</style></defs><title>Asset 1</title><g id="Layer_2" data-name="Layer 2"><g id="Layer_1-2" data-name="Layer 1"><path class="cls-1" d="M13.43,6.66a9.94,9.94,0,0,1-.72,3.24A32.17,32.17,0,0,1,9.5,16,34.11,34.11,0,0,1,7,19.51c-.17.21-.35.22-.52,0A36.59,36.59,0,0,1,.75,10,10.39,10.39,0,0,1,0,7.32,6.29,6.29,0,0,1,.8,3.54,6.52,6.52,0,0,1,5.71.08a6.67,6.67,0,0,1,7.56,5.3c.08.42.11.85.15,1.28M6.7,18.91l.13-.15a39.26,39.26,0,0,0,3.29-4.86A25.41,25.41,0,0,0,12.38,9a7,7,0,0,0,.35-3.39A6.12,6.12,0,0,0,6,.62a5.94,5.94,0,0,0-4.48,2.8,5.79,5.79,0,0,0-.89,4.1,12.14,12.14,0,0,0,.91,3,37.69,37.69,0,0,0,4.33,7.37c.25.34.52.67.79,1"/><path class="cls-1" d="M6.71,2.78A3.9,3.9,0,1,1,2.8,6.66,3.88,3.88,0,0,1,6.71,2.78m0,.59A3.31,3.31,0,1,0,10,6.72,3.3,3.3,0,0,0,6.7,3.37"/></g></g></svg>