<svg xmlns="http://www.w3.org/2000/svg" viewBox="0 0 14.46 14.46"><defs><style>.cls-1{fill:#fff;}</style></defs><title>Asset 2</title><g id="Layer_2" data-name="Layer 2"><g id="Layer_1-2" data-name="Layer 1"><path class="cls-1" d="M7.23,0A7.23,7.23,0,1,1,0,7.23,7.23,7.23,0,0,1,7.23,0M.69,7.23A6.54,6.54,0,1,0,7.24.7,6.53,6.53,0,0,0,.69,7.23"/><path class="cls-1" d="M7.75,6.88h3.3c.11,0,.15,0,.15.15a4,4,0,0,0,0,.42c0,.1,0,.13-.13.13H7.19c-.1,0-.13,0-.13-.13q0-1.94,0-3.88c0-.11,0-.14.14-.14h.43c.11,0,.14,0,.14.14q0,1.56,0,3.12Z"/></g></g></svg>