<svg xmlns="http://www.w3.org/2000/svg" viewBox="0 0 49.22 52.22"><defs><style>.cls-1{fill:#fff;}</style></defs><title>Asset 16</title><g id="Layer_2" data-name="Layer 2"><g id="Layer_1-2" data-name="Layer 1"><path class="cls-1" d="M22.72,18.38c-.19.82-.34,1.66-.59,2.46a.9.9,0,0,0,.15,1q8.92,11.51,17.82,23a4.41,4.41,0,0,1,.74,4.87,4.36,4.36,0,0,1-7.58.56q-3-4.44-5.93-8.89Q22.11,33.52,16.9,25.68A.93.93,0,0,0,16,25.2a6.46,6.46,0,0,1-5.7-2.69c-3.38-4.62-6.68-9.3-10-14A1.11,1.11,0,0,1,.48,6.93a1.14,1.14,0,0,1,1.64.4l8.76,12.23c.38.53.74,1.07,1.14,1.58A4.52,4.52,0,0,0,16,23a2.68,2.68,0,0,1,2.58,1.28L35,48.87a2.28,2.28,0,0,0,1.4,1.06A2.12,2.12,0,0,0,38.72,49a2.08,2.08,0,0,0-.12-2.46c-1.25-1.63-2.51-3.25-3.76-4.87L20.34,22.93A2.52,2.52,0,0,1,20,20.28a4.71,4.71,0,0,0-.58-4.81Q14.54,8.74,9.72,2C9.18,1.25,9.28.5,10,.14A1.12,1.12,0,0,1,11.47.6l4.32,6,5.42,7.56A7.92,7.92,0,0,1,22.72,18.38Z"/><path class="cls-1" d="M49.22,7.52a17.81,17.81,0,0,1-1.91,7.61,20.77,20.77,0,0,1-7.68,8.52,11.9,11.9,0,0,1-4.23,1.67,5.94,5.94,0,0,0-2.94,1.45,1.11,1.11,0,0,1-1.87-.65A1.15,1.15,0,0,1,31,25a7.51,7.51,0,0,1,3.79-1.9,11.76,11.76,0,0,0,5.63-2.85A18.12,18.12,0,0,0,46.7,9.93a9.19,9.19,0,0,0,0-4.31,4.38,4.38,0,0,0-5.28-3.29A12.59,12.59,0,0,0,35,5.75a18.28,18.28,0,0,0-5.67,9.91,12.46,12.46,0,0,0,0,4.14A6.41,6.41,0,0,1,29,22.72a1.11,1.11,0,0,1-1.35.77,1.08,1.08,0,0,1-.79-1.36,7,7,0,0,0,.17-3,14.21,14.21,0,0,1,1.3-7.61A19.89,19.89,0,0,1,38,1.07a8.78,8.78,0,0,1,6-.85,6.43,6.43,0,0,1,4.89,5.29A19.66,19.66,0,0,1,49.22,7.52Z"/><path class="cls-1" d="M13,50a2.53,2.53,0,0,0,2.21-1.22c1.9-2.9,3.79-5.81,5.72-8.7a1.82,1.82,0,0,1,.88-.66.93.93,0,0,1,1.08.45,1.07,1.07,0,0,1,0,1.22c-.33.54-.69,1.06-1,1.59C20.23,45.12,18.62,47.59,17,50a4.58,4.58,0,0,1-6.78,1.14,4.47,4.47,0,0,1-.75-6.12c2.69-3.55,5.44-7.07,8.16-10.6a1.13,1.13,0,0,1,1.63-.25,1.11,1.11,0,0,1,.12,1.64l-8,10.38a2.27,2.27,0,0,0,1.05,3.64A3.84,3.84,0,0,0,13,50Z"/><path class="cls-1" d="M14.84,18.45c-.44,0-.74-.3-1-.69L7.34,8.48C6.54,7.34,5.73,6.21,5,5.07a1.11,1.11,0,0,1,.78-1.78,1.19,1.19,0,0,1,1.15.63q2.32,3.34,4.66,6.67l4.22,6a1.13,1.13,0,0,1,.12,1.26A1.08,1.08,0,0,1,14.84,18.45Z"/></g></g></svg>