<svg xmlns="http://www.w3.org/2000/svg" viewBox="0 0 50.96 55.59"><defs><style>.cls-1{fill:#fff;}</style></defs><title>Asset 15</title><g id="Layer_2" data-name="Layer 2"><g id="Layer_1-2" data-name="Layer 1"><path class="cls-1" d="M39.63,43.67H39V55.58H33.64V33.2c-2-.18-4-.41-5.92-.5A3.85,3.85,0,0,1,24,30.31a33.74,33.74,0,0,0-2.2-4v29H15.35V36.92h-.82v.71c0,5.67,0,11.35,0,17,0,.57-.15.73-.72.72-1.68,0-3.36,0-5,0H8.12V26.27l-.11,0c-.08.12-.16.24-.23.37C7,28.06,6.3,29.53,5.53,31a3,3,0,0,1-3,1.62A2.78,2.78,0,0,1,.12,30.54a3,3,0,0,1,.23-2.27C2.21,24.66,4.06,21,5.94,17.43a3.12,3.12,0,0,1,2.6-1.72c.24,0,.49,0,.74,0,3.79,0,7.58,0,11.37,0a3.57,3.57,0,0,1,3.52,2.17c1.61,3.24,3.32,6.43,5,9.65a.71.71,0,0,0,.77.41c4.75,0,9.5,0,14.25,0a2.62,2.62,0,0,1,2.55,1.56c1.3,2.55,2.62,5.09,3.93,7.63a2.38,2.38,0,0,1,.2,2,2,2,0,0,1-1.76,1.41,2.11,2.11,0,0,1-2.19-1.16c-.53-1-1-2-1.52-2.94a1.35,1.35,0,0,0-.4-.51V55.59H39.63Z"/><path class="cls-1" d="M21.07,6a6,6,0,1,1-6-6A6,6,0,0,1,21.07,6Z"/><path class="cls-1" d="M38.78,25.19a4.48,4.48,0,0,1,0-9,4.48,4.48,0,1,1,0,9Z"/></g></g></svg>