<svg xmlns="http://www.w3.org/2000/svg" viewBox="0 0 53.48 53.48"><defs><style>.cls-1{fill:#fff;}</style></defs><title>Asset 19</title><g id="Layer_2" data-name="Layer 2"><g id="Layer_1-2" data-name="Layer 1"><path class="cls-1" d="M0,26.74A26.74,26.74,0,1,1,26.71,53.48,26.73,26.73,0,0,1,0,26.74Zm30.84-5.69q0-4.22,0-8.44a6.06,6.06,0,0,0-.05-.81,4.12,4.12,0,0,0-4.9-3.38,4.18,4.18,0,0,0-3.27,4.12c0,5.66,0,11.32,0,17a4.9,4.9,0,0,0,0,.72,4.1,4.1,0,0,0,8.16-.67C30.85,26.74,30.84,23.9,30.84,21.06Zm0,20a4.1,4.1,0,1,0-4.12,4.1A4.09,4.09,0,0,0,30.84,41Z"/></g></g></svg>