<svg xmlns="http://www.w3.org/2000/svg" viewBox="0 0 49.04 32.89"><defs><style>.cls-1{fill:#8eae71;}</style></defs><title>Asset 5</title><g id="Layer_2" data-name="Layer 2"><g id="Layer_1-2" data-name="Layer 1"><path class="cls-1" d="M7.85,22.8l1,.66,5.22-7.71-1-.66Zm1.57-7.71L4.2,22.8l1,.66,5.22-7.71ZM11,26.21a1,1,0,1,0,1,1,1,1,0,0,0-1-1M38.08,12.85a1,1,0,1,0-1-1,1,1,0,0,0,1,1M11,12.85a1,1,0,1,0-1-1,1,1,0,0,0,1,1M47,6.17H2.09A2.07,2.07,0,0,0,0,8.22V30.83a2.07,2.07,0,0,0,2.09,2.05H47A2.07,2.07,0,0,0,49,30.83V8.22A2.07,2.07,0,0,0,47,6.17m1,24.67a1,1,0,0,1-1,1H2.09a1,1,0,0,1-1-1V8.22a1,1,0,0,1,1-1H47a1,1,0,0,1,1,1ZM39.65,15.34a4.19,4.19,0,1,0,4.25,4.19,4.22,4.22,0,0,0-4.25-4.19m0,7.19a3,3,0,1,1,3.05-3,3,3,0,0,1-3.05,3M27.31,12.68a7.58,7.58,0,0,0-2.79-.53,7.45,7.45,0,0,0-7.43,6.46,7.3,7.3,0,0,0-.06.92,7.49,7.49,0,1,0,10.28-6.84M25.18,22.94h-.24v.85a.42.42,0,0,1-.84,0v-.85H22.68a.41.41,0,1,1,0-.82h2.5a1.09,1.09,0,1,0,0-2.18H23.8a1.91,1.91,0,1,1,.05-3.82h.24v-.85a.42.42,0,0,1,.84,0v.85h1.32a.41.41,0,1,1,0,.82h-2.4a1.09,1.09,0,1,0,0,2.18h1.32a1.91,1.91,0,1,1,0,3.83M41.73,8.73V8.22H7.3v.51c0,1.92-.61,5.14-4.7,5.14H2.09v11.3h.52c4.09,0,4.7,3.22,4.7,5.14v.51H41.73v-.51c0-1.92.61-5.14,4.7-5.14H47V14.9h-.52c-3.23,0-4.7-3.2-4.7-6.17m4.17,15.43c-3.12.2-5,2.27-5.2,5.63H8.33c-.17-3.37-2.08-5.43-5.2-5.63V14.88c3.12-.2,5-2.27,5.2-5.64H40.7c.16,3.15,1.81,6.36,5.2,6.66v8.26Zm-7.82,2a1,1,0,1,0,1,1,1,1,0,0,0-1-1M5.48,4.11H43.56c.43,0,.78-.23.78-.51s-.35-.51-.78-.51H5.48c-.43,0-.78.23-.78.51s.35.51.78.51M7.83,1H41.21C41.64,1,42,.8,42,.51S41.64,0,41.21,0H7.83C7.39,0,7,.23,7,.51s.35.51.78.51"/></g></g></svg>