<svg xmlns="http://www.w3.org/2000/svg" viewBox="0 0 34.32 43.09"><defs><style>.cls-1{fill:#7f817c;}</style></defs><title>Asset 12</title><g id="Layer_2" data-name="Layer 2"><g id="Layer_1-2" data-name="Layer 1"><path class="cls-1" d="M12.83,36.16A11.88,11.88,0,0,1,11.4,39s0,.09-.09.13A8,8,0,0,0,14.93,37s0,0-.09,0a9.88,9.88,0,0,0-2-.8"/><path class="cls-1" d="M5.77,36.16a13.2,13.2,0,0,0-2,.76s0,0-.09,0a8,8,0,0,0,3.62,2.1s0-.09-.09-.13a14.59,14.59,0,0,1-1.43-2.77"/><path class="cls-1" d="M32.71,2.65,10.41,0a1.78,1.78,0,0,0-2,1.61L8,5.47H24.31a3.28,3.28,0,0,1,3.26,3.26v29.8l.94.09a1.81,1.81,0,0,0,2-1.61l3.8-32.3a1.86,1.86,0,0,0-1.61-2.06"/><path class="cls-1" d="M9.2,17.66a11.48,11.48,0,0,1-2.41-1s0,0-.09,0a8.2,8.2,0,0,0-1.52,4.11H8.71a17.82,17.82,0,0,1,.49-3.08"/><path class="cls-1" d="M13,17.13a14.67,14.67,0,0,0,2.46-.22,11.79,11.79,0,0,0-2-3.35l-.09-.09h-.8l-.09.09a11.22,11.22,0,0,0-2,3.35,14.67,14.67,0,0,0,2.46.22"/><path class="cls-1" d="M9.52,16.64a11.88,11.88,0,0,1,1.43-2.81s0-.09.09-.14a8,8,0,0,0-3.62,2.1s0,0,.09,0a7.87,7.87,0,0,0,2,.8"/><path class="cls-1" d="M10.28,24.72a14.31,14.31,0,0,1,2.81-.27,14.64,14.64,0,0,1,2.82.27,14.69,14.69,0,0,0,.45-2.86H9.87a9.83,9.83,0,0,0,.4,2.86"/><path class="cls-1" d="M16.58,16.64a9.83,9.83,0,0,0,2-.76s0,0,.09,0a8,8,0,0,0-3.62-2.1s0,.09.09.13a10.83,10.83,0,0,1,1.43,2.77"/><path class="cls-1" d="M15.86,17.93a14.17,14.17,0,0,1-2.77.27,14.31,14.31,0,0,1-2.82-.27,14.75,14.75,0,0,0-.45,2.86h6.48a14.68,14.68,0,0,0-.45-2.86"/><path class="cls-1" d="M19.35,16.73a14.33,14.33,0,0,1-2.41,1,11.76,11.76,0,0,1,.45,3.13h3.53a7.8,7.8,0,0,0-1.52-4.11s0,0,0,0"/><path class="cls-1" d="M24.26,6.9H1.83A1.81,1.81,0,0,0,0,8.73V41.26a1.81,1.81,0,0,0,1.83,1.83H24.26a1.81,1.81,0,0,0,1.83-1.83V8.73A1.81,1.81,0,0,0,24.26,6.9m-4,29.94H5.85a.71.71,0,1,1,0-1.43H20.24a.71.71,0,1,1,0,1.43M13,30.31a9,9,0,1,1,9-9,9,9,0,0,1-9,9"/><path class="cls-1" d="M16.93,25a11.43,11.43,0,0,1,2.41,1s0,0,.09,0A8.19,8.19,0,0,0,21,21.91H17.42A22.18,22.18,0,0,1,16.93,25"/><path class="cls-1" d="M8.76,21.87H5.23A7.81,7.81,0,0,0,6.75,26s0,0,.09,0a14.37,14.37,0,0,1,2.41-1,11.17,11.17,0,0,1-.49-3.08"/><path class="cls-1" d="M9.3,35.67a14.77,14.77,0,0,0-2.46.22,10,10,0,0,0,2,3.35s0,.09.09.09h.8l.09-.09a11.21,11.21,0,0,0,2-3.35,14.34,14.34,0,0,0-2.46-.22"/></g></g></svg>