<svg xmlns="http://www.w3.org/2000/svg" viewBox="0 0 48.21 34.71"><defs><style>.cls-1{fill:#f2ca28;}</style></defs><title>Asset 9</title><g id="Layer_2" data-name="Layer 2"><g id="Layer_1-2" data-name="Layer 1"><path class="cls-1" d="M39,0H5.08A5.18,5.18,0,0,0,0,5.28V21.6a5.18,5.18,0,0,0,5.08,5.27H28.17a.88.88,0,0,0,0-1.76H5.08A3.45,3.45,0,0,1,1.69,21.6V12.22H42.36v4.4a.85.85,0,1,0,1.69,0V5.28A5.18,5.18,0,0,0,39,0M5.08,1.76H39a3.45,3.45,0,0,1,3.39,3.52v.52H1.69V5.28A3.45,3.45,0,0,1,5.08,1.76m-3.39,8.7V7.55H42.36v2.9Z"/><path class="cls-1" d="M22.44,17a1,1,0,0,0-1-1H7.8a1,1,0,0,0,0,2H21.48a1,1,0,0,0,1-1"/><path class="cls-1" d="M7.8,20.44a1,1,0,0,0,0,2H18.51a1,1,0,0,0,0-2Z"/><path class="cls-1" d="M46.26,21.51c-.27-3.38-2.14-6-4.47-6S37.62,18,37.32,21.36a3,3,0,0,0-2.32,3v7.4a2.93,2.93,0,0,0,2.87,3h7.46a2.93,2.93,0,0,0,2.87-3v-7.4a3,3,0,0,0-2-2.81m-4.47-4c1.2,0,2.26,1.67,2.53,3.77h-5c.25-2.06,1.31-3.73,2.52-3.73Zm4.51,14.15a1,1,0,0,1-1,1H37.88a1,1,0,0,1-1-1V24.32a1,1,0,0,1,1-1h7.46a1,1,0,0,1,1,1Z"/></g></g></svg>