<svg xmlns="http://www.w3.org/2000/svg" viewBox="0 0 39.76 29.92"><defs><style>.cls-1{fill:#f2ca28;}</style></defs><title>Asset 10</title><g id="Layer_2" data-name="Layer 2"><g id="Layer_1-2" data-name="Layer 1"><path class="cls-1" d="M38.47,0H1.28A1.27,1.27,0,0,0,0,1.27V28.65a1.28,1.28,0,0,0,1.28,1.27H38.47a1.28,1.28,0,0,0,1.28-1.27V1.27A1.27,1.27,0,0,0,38.47,0M30.3,4.68a3.68,3.68,0,1,1-3.72,3.68A3.7,3.7,0,0,1,30.3,4.68M2.47,5.7a.26.26,0,0,1,.26-.25H19.14a.26.26,0,0,1,.26.25V7a.26.26,0,0,1-.26.25H2.72A.26.26,0,0,1,2.47,7Zm0,5.07a.25.25,0,0,1,.26-.25H19.14a.25.25,0,0,1,.26.25V12a.25.25,0,0,1-.26.25H2.72A.25.25,0,0,1,2.47,12Zm0,5.07a.25.25,0,0,1,.26-.25H19.14a.25.25,0,0,1,.26.25v1.27a.25.25,0,0,1-.26.25H2.72a.25.25,0,0,1-.26-.25ZM36.58,27.25a.26.26,0,0,1-.26.25H2.72a.26.26,0,0,1-.26-.25V26a.26.26,0,0,1,.26-.25h33.6a.26.26,0,0,1,.26.25Zm0-5.07a.26.26,0,0,1-.26.25H2.72a.26.26,0,0,1-.26-.25V20.91a.25.25,0,0,1,.26-.25h33.6a.25.25,0,0,1,.26.25Zm.26-4.06H23.75V14.45c1-2.21,4.23-2.51,4.23-2.51l2.31,5.35,2.31-5.35s3.27.3,4.23,2.51Z"/></g></g></svg>